<svg width="68" height="30" viewBox="0 0 68 30" fill="none" xmlns="http://www.w3.org/2000/svg">
<path d="M0.423438 30L7.78344 0.799999H14.2234L21.6234 30H16.5034L14.9034 22.92H7.14344L5.54344 30H0.423438ZM8.06344 18.84H13.9834L12.2234 11C11.9301 9.69333 11.6768 8.52 11.4634 7.48C11.2501 6.41333 11.1034 5.64 11.0234 5.16C10.9434 5.64 10.7968 6.41333 10.5834 7.48C10.3968 8.52 10.1434 9.68 9.82344 10.96L8.06344 18.84ZM26.0878 30V0.799999H35.8078C37.7545 0.799999 39.4478 1.17333 40.8878 1.92C42.3545 2.66667 43.4878 3.72 44.2878 5.08C45.0878 6.41333 45.4878 7.98667 45.4878 9.8C45.4878 11.5867 45.0745 13.16 44.2478 14.52C43.4478 15.88 42.3278 16.9333 40.8878 17.68C39.4478 18.4267 37.7545 18.8 35.8078 18.8H31.0878V30H26.0878ZM31.0878 14.28H35.8078C37.1945 14.28 38.3011 13.88 39.1278 13.08C39.9811 12.2533 40.4078 11.16 40.4078 9.8C40.4078 8.41333 39.9811 7.32 39.1278 6.52C38.3011 5.72 37.1945 5.32 35.8078 5.32H31.0878V14.28ZM50.5922 30V25.6H56.4722V5.2H50.5922V0.799999H67.3922V5.2H61.5122V25.6H67.3922V30H50.5922Z" fill="#143F5F"/>
</svg>
