<svg width="20" height="20" viewBox="0 0 48 64" fill="white" xmlns="http://www.w3.org/2000/svg">
<g clip-path="url(#clip0_51_12)">
<path d="M21.7253 0.687427C23.1003 -0.225073 24.9003 -0.225073 26.2753 0.687427L28.5003 2.14993C29.2503 2.63743 30.1253 2.87493 31.0128 2.82493L33.6753 2.66243C35.3253 2.56243 36.8753 3.46243 37.6128 4.93743L38.8128 7.32493C39.2128 8.12493 39.8628 8.76243 40.6503 9.16243L43.0628 10.3749C44.5378 11.1124 45.4378 12.6624 45.3378 14.3124L45.1753 16.9749C45.1253 17.8624 45.3628 18.7499 45.8503 19.4874L47.3253 21.7124C48.2378 23.0874 48.2378 24.8874 47.3253 26.2624L45.8503 28.4999C45.3628 29.2499 45.1253 30.1249 45.1753 31.0124L45.3378 33.6749C45.4378 35.3249 44.5378 36.8749 43.0628 37.6124L40.6753 38.8124C39.8753 39.2124 39.2378 39.8624 38.8378 40.6499L37.6253 43.0624C36.8878 44.5374 35.3378 45.4374 33.6878 45.3374L31.0253 45.1749C30.1378 45.1249 29.2503 45.3624 28.5128 45.8499L26.2878 47.3249C24.9128 48.2374 23.1128 48.2374 21.7378 47.3249L19.5003 45.8499C18.7503 45.3624 17.8753 45.1249 16.9878 45.1749L14.3253 45.3374C12.6753 45.4374 11.1253 44.5374 10.3878 43.0624L9.18775 40.6749C8.78775 39.8749 8.13775 39.2374 7.35025 38.8374L4.93775 37.6249C3.46275 36.8874 2.56275 35.3374 2.66275 33.6874L2.82525 31.0249C2.87525 30.1374 2.63775 29.2499 2.15025 28.5124L0.687751 26.2749C-0.224749 24.8999 -0.224749 23.0999 0.687751 21.7249L2.15025 19.4999C2.63775 18.7499 2.87525 17.8749 2.82525 16.9874L2.66275 14.3249C2.56275 12.6749 3.46275 11.1249 4.93775 10.3874L7.32525 9.18743C8.12525 8.77493 8.77525 8.12493 9.17525 7.32493L10.3753 4.93743C11.1128 3.46243 12.6628 2.56243 14.3128 2.66243L16.9753 2.82493C17.8628 2.87493 18.7503 2.63743 19.4878 2.14993L21.7253 0.687427ZM34.0003 23.9999C34.0003 21.3478 32.9467 18.8042 31.0713 16.9289C29.196 15.0535 26.6524 13.9999 24.0003 13.9999C21.3481 13.9999 18.8045 15.0535 16.9292 16.9289C15.0538 18.8042 14.0003 21.3478 14.0003 23.9999C14.0003 26.6521 15.0538 29.1956 16.9292 31.071C18.8045 32.9464 21.3481 33.9999 24.0003 33.9999C26.6524 33.9999 29.196 32.9464 31.0713 31.071C32.9467 29.1956 34.0003 26.6521 34.0003 23.9999ZM0.162751 55.2249L5.55025 42.4124C5.57525 42.4249 5.58775 42.4374 5.60025 42.4624L6.80025 44.8499C8.26275 47.7499 11.3003 49.5124 14.5503 49.3249L17.2128 49.1624C17.2378 49.1624 17.2753 49.1624 17.3003 49.1874L19.5253 50.6624C20.1628 51.0749 20.8378 51.3999 21.5378 51.6249L16.8378 62.7874C16.5503 63.4749 15.9128 63.9374 15.1753 63.9999C14.4378 64.0624 13.7253 63.7249 13.3253 63.0999L9.30025 56.9374L2.28775 57.9749C1.57525 58.0749 0.862751 57.7874 0.412751 57.2249C-0.0372486 56.6624 -0.124749 55.8874 0.150251 55.2249H0.162751ZM31.1628 62.7749L26.4628 51.6249C27.1628 51.3999 27.8378 51.0874 28.4753 50.6624L30.7003 49.1874C30.7253 49.1749 30.7503 49.1624 30.7878 49.1624L33.4503 49.3249C36.7003 49.5124 39.7378 47.7499 41.2003 44.8499L42.4003 42.4624C42.4128 42.4374 42.4253 42.4249 42.4503 42.4124L47.8503 55.2249C48.1253 55.8874 48.0253 56.6499 47.5878 57.2249C47.1503 57.7999 46.4253 58.0874 45.7128 57.9749L38.7003 56.9374L34.6753 63.0874C34.2752 63.7124 33.5628 64.0499 32.8253 63.9874C32.0878 63.9249 31.4503 63.4499 31.1628 62.7749Z" fill="#143F5F"/>
</g>
<defs>
<clipPath id="clip0_51_12">
<rect width="0" height="20" fill="white"/>
</clipPath>
</defs>
</svg>
