<svg width="63" height="56" viewBox="0 0 63 56" fill="none" xmlns="http://www.w3.org/2000/svg">
<g clip-path="url(#clip0_53_54)">
<path d="M7 0C3.13906 0 0 3.13906 0 7V38.5C0 42.3609 3.13906 45.5 7 45.5H26.25L25.0797 49H17.5C15.5641 49 14 50.5641 14 52.5C14 54.4359 15.5641 56 17.5 56H45.5C47.4359 56 49 54.4359 49 52.5C49 50.5641 47.4359 49 45.5 49H37.9203L36.75 45.5H56C59.8609 45.5 63 42.3609 63 38.5V7C63 3.13906 59.8609 0 56 0H7ZM56 7V31.5H7V7H56Z" fill="#143F5F"/>
</g>
<defs>
<clipPath id="clip0_53_54">
<rect width="63" height="56" fill="white"/>
</clipPath>
</defs>
</svg>
