<svg width="55" height="49" viewBox="0 0 55 49" fill="none" xmlns="http://www.w3.org/2000/svg">
<path d="M30.5556 3.05836C30.5556 2.11081 30.1259 1.22069 29.3811 0.646422C28.6363 0.0721513 27.6719 -0.138415 26.7552 0.0912936L9.57726 4.39832C7.5434 4.90559 6.11111 6.74326 6.11111 8.84892V42.8744H3.05556C1.36545 42.8744 0 44.2431 0 45.9372C0 47.6313 1.36545 49 3.05556 49H9.16667H27.5H30.5556V45.9372V3.05836ZM24.4444 24.4978C24.4444 26.1919 23.4227 27.5606 22.1528 27.5606C20.8828 27.5606 19.8611 26.1919 19.8611 24.4978C19.8611 22.8037 20.8828 21.435 22.1528 21.435C23.4227 21.435 24.4444 22.8037 24.4444 24.4978ZM33.6111 12.2467H42.7778V45.9372C42.7778 47.6313 44.1432 49 45.8333 49H51.9444C53.6345 49 55 47.6313 55 45.9372C55 44.2431 53.6345 42.8744 51.9444 42.8744H48.8889V12.2467C48.8889 8.86806 46.1484 6.12113 42.7778 6.12113H33.6111V12.2467Z" fill="#143F5F"/>
</svg>
