<svg width="54" height="54" viewBox="0 0 54 54" fill="none" xmlns="http://www.w3.org/2000/svg">
<path d="M30.375 3.375C30.375 1.5082 28.8668 0 27 0C25.1332 0 23.625 1.5082 23.625 3.375V28.9723L15.8836 21.2309C14.5652 19.9125 12.4242 19.9125 11.1059 21.2309C9.7875 22.5492 9.7875 24.6902 11.1059 26.0086L24.6059 39.5086C25.9242 40.827 28.0652 40.827 29.3836 39.5086L42.8836 26.0086C44.202 24.6902 44.202 22.5492 42.8836 21.2309C41.5652 19.9125 39.4242 19.9125 38.1059 21.2309L30.375 28.9723V3.375ZM6.75 37.125C3.02695 37.125 0 40.152 0 43.875V47.25C0 50.973 3.02695 54 6.75 54H47.25C50.973 54 54 50.973 54 47.25V43.875C54 40.152 50.973 37.125 47.25 37.125H36.5449L31.7672 41.9027C29.1305 44.5395 24.859 44.5395 22.2223 41.9027L17.4551 37.125H6.75ZM45.5625 43.0312C46.2338 43.0312 46.8777 43.2979 47.3524 43.7726C47.8271 44.2473 48.0938 44.8912 48.0938 45.5625C48.0938 46.2338 47.8271 46.8777 47.3524 47.3524C46.8777 47.8271 46.2338 48.0938 45.5625 48.0938C44.8912 48.0938 44.2473 47.8271 43.7726 47.3524C43.2979 46.8777 43.0312 46.2338 43.0312 45.5625C43.0312 44.8912 43.2979 44.2473 43.7726 43.7726C44.2473 43.2979 44.8912 43.0312 45.5625 43.0312Z" fill="#143F5F"/>
</svg>
