<svg width="52" height="48" viewBox="0 0 52 48" fill="none" xmlns="http://www.w3.org/2000/svg">
<path d="M0 5.25595V21.6601C0 23.5255 0.796434 25.314 2.22288 26.6307L23.1441 45.9426C26.1159 48.6858 30.9302 48.6858 33.9019 45.9426L49.7712 31.2941C52.7429 28.5509 52.7429 24.107 49.7712 21.3638L28.8499 2.05193C27.4235 0.735207 25.4859 3.81222e-05 23.4651 3.81222e-05H5.70579C2.55572 -0.0109346 0 2.34819 0 5.25595ZM13.3135 8.76721C14.3224 8.76721 15.2899 9.13714 16.0033 9.79563C16.7166 10.4541 17.1174 11.3472 17.1174 12.2785C17.1174 13.2097 16.7166 14.1028 16.0033 14.7613C15.2899 15.4198 14.3224 15.7897 13.3135 15.7897C12.3047 15.7897 11.3371 15.4198 10.6238 14.7613C9.91042 14.1028 9.50966 13.2097 9.50966 12.2785C9.50966 11.3472 9.91042 10.4541 10.6238 9.79563C11.3371 9.13714 12.3047 8.76721 13.3135 8.76721Z" fill="#143F5F"/>
</svg>
