<svg width="58" height="46" viewBox="0 0 58 46" fill="none" xmlns="http://www.w3.org/2000/svg">
<path d="M8.7 11.5C8.7 8.45001 9.92214 5.52494 12.0976 3.36827C14.273 1.2116 17.2235 0 20.3 0C23.3765 0 26.327 1.2116 28.5024 3.36827C30.6779 5.52494 31.9 8.45001 31.9 11.5C31.9 14.55 30.6779 17.4751 28.5024 19.6317C26.327 21.7884 23.3765 23 20.3 23C17.2235 23 14.273 21.7884 12.0976 19.6317C9.92214 17.4751 8.7 14.55 8.7 11.5ZM0 43.3316C0 34.482 7.23188 27.3125 16.1584 27.3125H24.4416C33.3681 27.3125 40.6 34.482 40.6 43.3316C40.6 44.8051 39.3947 46 37.9084 46H2.69156C1.20531 46 0 44.8051 0 43.3316ZM45.675 28.0312V22.2812H39.875C38.6697 22.2812 37.7 21.3199 37.7 20.125C37.7 18.9301 38.6697 17.9688 39.875 17.9688H45.675V12.2188C45.675 11.0238 46.6447 10.0625 47.85 10.0625C49.0553 10.0625 50.025 11.0238 50.025 12.2188V17.9688H55.825C57.0303 17.9688 58 18.9301 58 20.125C58 21.3199 57.0303 22.2812 55.825 22.2812H50.025V28.0312C50.025 29.2262 49.0553 30.1875 47.85 30.1875C46.6447 30.1875 45.675 29.2262 45.675 28.0312Z" fill="#143F5F"/>
</svg>
